<?xml version="1.0" encoding="UTF-8" standalone="no"?>
<!-- Created with Inkscape (http://www.inkscape.org/) -->

<svg
   width="210mm"
   height="100mm"
   viewBox="0 0 210 100"
   version="1.1"
   id="svg1"
   sodipodi:docname="daily-dark.svg"
   inkscape:version="1.3.2 (091e20e, 2023-11-25, custom)"
   xmlns:inkscape="http://www.inkscape.org/namespaces/inkscape"
   xmlns:sodipodi="http://sodipodi.sourceforge.net/DTD/sodipodi-0.dtd"
   xmlns="http://www.w3.org/2000/svg"
   xmlns:svg="http://www.w3.org/2000/svg">
  <sodipodi:namedview
     id="namedview1"
     pagecolor="#000000"
     bordercolor="#000000"
     borderopacity="0.25"
     inkscape:showpageshadow="2"
     inkscape:pageopacity="0.0"
     inkscape:pagecheckerboard="0"
     inkscape:deskcolor="#d1d1d1"
     inkscape:document-units="mm"
     inkscape:zoom="0.70110129"
     inkscape:cx="373.69779"
     inkscape:cy="389.38739"
     inkscape:window-width="1450"
     inkscape:window-height="1030"
     inkscape:window-x="224"
     inkscape:window-y="0"
     inkscape:window-maximized="0"
     inkscape:current-layer="layer1" />
  <defs
     id="defs1">
    <filter
       style="color-interpolation-filters:sRGB"
       id="filter89"
       inkscape:label="filter1" />
    <filter
       style="color-interpolation-filters:sRGB"
       inkscape:label="Drop Shadow"
       id="filter251"
       x="-0.61334976"
       y="-0.65659056"
       width="2.2266995"
       height="2.3131811">
      <feFlood
         result="flood"
         in="SourceGraphic"
         flood-opacity="0.898039"
         flood-color="rgb(229,199,24)"
         id="feFlood250" />
      <feGaussianBlur
         result="blur"
         in="SourceGraphic"
         stdDeviation="10.000000"
         id="feGaussianBlur250" />
      <feOffset
         result="offset"
         in="blur"
         dx="-0.000000"
         dy="0.000000"
         id="feOffset250" />
      <feComposite
         result="comp1"
         operator="in"
         in="offset"
         in2="flood"
         id="feComposite250" />
      <feComposite
         result="comp2"
         operator="over"
         in="SourceGraphic"
         in2="comp1"
         id="feComposite251" />
    </filter>
  </defs>
  <g
     inkscape:label="Layer 1"
     inkscape:groupmode="layer"
     id="layer1">
    <ellipse
       style="fill:#a3bcc0;fill-opacity:1;stroke-width:0.264583;filter:url(#filter251)"
       id="path2"
       cx="56.041294"
       cy="48.116268"
       rx="19.564693"
       ry="18.27623"
       inkscape:label="path2" />
    <path
       d="m 77.63727,47.989439 q 0,5.035351 -2.207617,9.128125 -2.182812,4.092773 -5.829101,6.35 -2.530078,1.562695 -5.655469,2.257226 -3.100586,0.694528 -8.185547,0.694528 H 46.432974 V 29.485142 h 9.227344 q 5.407421,0 8.582421,0.79375 3.199805,0.768945 5.407422,2.133203 3.770313,2.356446 5.878711,6.275586 2.108398,3.919141 2.108398,9.301758 z m -5.13457,-0.07441 q 0,-4.340821 -1.513086,-7.317383 -1.513086,-2.976562 -4.514453,-4.688086 -2.182812,-1.240234 -4.638476,-1.711523 -2.455664,-0.496094 -5.878711,-0.496094 h -4.613672 v 28.500585 h 4.613672 q 3.54707,0 6.176367,-0.520898 2.654101,-0.520898 4.861719,-1.934766 2.75332,-1.761132 4.117578,-4.638476 1.389062,-2.877344 1.389062,-7.193359 z m 34.23047,18.504289 h -4.63848 v -2.95175 q -0.62011,0.421679 -1.68672,1.190625 -1.041794,0.74414 -2.033981,1.190624 -1.165821,0.570501 -2.678907,0.942571 -1.513085,0.39688 -3.54707,0.39688 -3.745508,0 -6.35,-2.480466 -2.604492,-2.480469 -2.604492,-6.325195 0,-3.150196 1.339453,-5.084961 1.364258,-1.95957 3.869531,-3.075781 2.530079,-1.116211 6.077149,-1.513086 3.54707,-0.396875 7.615037,-0.595313 V 47.39413 q 0,-1.5875 -0.57051,-2.629297 -0.5457,-1.041796 -1.587496,-1.637109 -0.992188,-0.570508 -2.38125,-0.768945 -1.389062,-0.198438 -2.902148,-0.198438 -1.835547,0 -4.092774,0.496094 -2.257226,0.471289 -4.663281,1.389062 h -0.248047 v -4.737699 q 1.364258,-0.37207 3.943945,-0.818554 2.579688,-0.446485 5.084961,-0.446485 2.926953,0 5.084961,0.496094 2.182809,0.471289 3.770309,1.637109 1.5627,1.141016 2.38125,2.951758 0.81856,1.810742 0.81856,4.489648 z m -4.63848,-6.821282 v -7.714257 q -2.133201,0.124023 -5.03535,0.37207 -2.877343,0.248047 -4.564062,0.719336 -2.00918,0.570508 -3.249414,1.785937 -1.240235,1.190625 -1.240235,3.299024 0,2.38125 1.438672,3.596679 1.438672,1.190625 4.39043,1.190625 2.455664,0 4.489648,-0.942578 2.033981,-0.967383 3.770311,-2.306836 z m 18.62832,-25.524027 h -5.25859 v -4.836914 h 5.25859 z m -0.29765,32.345309 h -4.66328 V 38.712486 h 4.66328 z m 13.94023,0 h -4.66328 v -38.59609 h 4.66328 z M 167.55426,38.712486 151.3816,76.638848 h -4.98574 l 5.15937,-11.55898 -11.03808,-26.367382 h 5.06015 l 8.50801,20.538281 8.58242,-20.538281 z"
       id="text1"
       style="font-size:50.8px;font-family:'HoloLens MDL2 Assets';-inkscape-font-specification:'HoloLens MDL2 Assets';direction:rtl;fill:#fcfcfc;fill-opacity:1;stroke-width:0.264583"
       aria-label="Daily" />
  </g>
</svg>
