<?xml version="1.0" encoding="UTF-8" standalone="no"?>
<!-- Created with Inkscape (http://www.inkscape.org/) -->

<svg
   width="210mm"
   height="100mm"
   viewBox="0 0 210 100"
   version="1.1"
   id="svg1"
   sodipodi:docname="daily-light.svg"
   inkscape:version="1.3.2 (091e20e, 2023-11-25, custom)"
   xmlns:inkscape="http://www.inkscape.org/namespaces/inkscape"
   xmlns:sodipodi="http://sodipodi.sourceforge.net/DTD/sodipodi-0.dtd"
   xmlns="http://www.w3.org/2000/svg"
   xmlns:svg="http://www.w3.org/2000/svg">
  <sodipodi:namedview
     id="namedview1"
     pagecolor="#ffffff"
     bordercolor="#000000"
     borderopacity="0.25"
     inkscape:showpageshadow="2"
     inkscape:pageopacity="0.0"
     inkscape:pagecheckerboard="0"
     inkscape:deskcolor="#d1d1d1"
     inkscape:document-units="mm"
     inkscape:zoom="0.70110129"
     inkscape:cx="373.69779"
     inkscape:cy="388.67422"
     inkscape:window-width="1920"
     inkscape:window-height="1001"
     inkscape:window-x="-9"
     inkscape:window-y="-9"
     inkscape:window-maximized="1"
     inkscape:current-layer="layer1" />
  <defs
     id="defs1">
    <filter
       style="color-interpolation-filters:sRGB"
       id="filter89"
       inkscape:label="filter1" />
    <filter
       style="color-interpolation-filters:sRGB"
       inkscape:label="Drop Shadow"
       id="filter251"
       x="-0.61334976"
       y="-0.65659056"
       width="2.2266995"
       height="2.3131811">
      <feFlood
         result="flood"
         in="SourceGraphic"
         flood-opacity="0.898039"
         flood-color="rgb(229,199,24)"
         id="feFlood250" />
      <feGaussianBlur
         result="blur"
         in="SourceGraphic"
         stdDeviation="10.000000"
         id="feGaussianBlur250" />
      <feOffset
         result="offset"
         in="blur"
         dx="-0.000000"
         dy="0.000000"
         id="feOffset250" />
      <feComposite
         result="comp1"
         operator="in"
         in="offset"
         in2="flood"
         id="feComposite250" />
      <feComposite
         result="comp2"
         operator="over"
         in="SourceGraphic"
         in2="comp1"
         id="feComposite251" />
    </filter>
  </defs>
  <g
     inkscape:label="Layer 1"
     inkscape:groupmode="layer"
     id="layer1">
    <ellipse
       style="fill:#f9d700;fill-opacity:1;stroke-width:0.264583;filter:url(#filter251)"
       id="path2"
       cx="59.060356"
       cy="48.871033"
       rx="19.564693"
       ry="18.27623" />
    <path
       d="m 80.65633,48.744204 q 0,5.035351 -2.207617,9.128125 -2.182812,4.092773 -5.829101,6.35 -2.530078,1.562695 -5.655469,2.257226 -3.100586,0.694528 -8.185547,0.694528 H 49.452034 V 30.239907 h 9.227344 q 5.407421,0 8.582421,0.79375 3.199805,0.768945 5.407422,2.133203 3.770313,2.356446 5.878711,6.275586 2.108398,3.919141 2.108398,9.301758 z m -5.13457,-0.07441 q 0,-4.340821 -1.513086,-7.317383 -1.513086,-2.976562 -4.514453,-4.688086 -2.182812,-1.240234 -4.638476,-1.711523 -2.455664,-0.496094 -5.878711,-0.496094 h -4.613672 v 28.500585 h 4.613672 q 3.54707,0 6.176367,-0.520898 2.654101,-0.520898 4.861719,-1.934766 2.75332,-1.761132 4.117578,-4.638476 1.389062,-2.877344 1.389062,-7.193359 z m 34.23047,18.504289 h -4.63848 v -2.95175 q -0.62011,0.421679 -1.68672,1.190625 -1.04179,0.74414 -2.03398,1.190624 -1.16582,0.570501 -2.678908,0.942571 -1.513085,0.39688 -3.54707,0.39688 -3.745508,0 -6.35,-2.480466 -2.604492,-2.480469 -2.604492,-6.325195 0,-3.150196 1.339453,-5.084961 1.364258,-1.95957 3.869531,-3.075781 2.530079,-1.116211 6.077149,-1.513086 3.547067,-0.396875 7.615037,-0.595313 v -0.719336 q 0,-1.5875 -0.57051,-2.629297 -0.5457,-1.041796 -1.5875,-1.637109 -0.99218,-0.570508 -2.38125,-0.768945 -1.389058,-0.198438 -2.902144,-0.198438 -1.835547,0 -4.092774,0.496094 -2.257226,0.471289 -4.663281,1.389062 h -0.248047 v -4.737699 q 1.364258,-0.37207 3.943945,-0.818554 2.579688,-0.446485 5.084961,-0.446485 2.92695,0 5.08496,0.496094 2.18281,0.471289 3.77031,1.637109 1.5627,1.141016 2.38125,2.951758 0.81856,1.810742 0.81856,4.489648 z m -4.63848,-6.821282 v -7.714257 q -2.1332,0.124023 -5.03535,0.37207 -2.877343,0.248047 -4.564062,0.719336 -2.00918,0.570508 -3.249414,1.785937 -1.240235,1.190625 -1.240235,3.299024 0,2.38125 1.438672,3.596679 1.438672,1.190625 4.39043,1.190625 2.455664,0 4.489649,-0.942578 2.03398,-0.967383 3.77031,-2.306836 z m 18.62832,-25.524027 h -5.25859 V 29.99186 h 5.25859 z m -0.29765,32.345309 h -4.66328 V 39.467251 h 4.66328 z m 13.94023,0 h -4.66328 v -38.59609 h 4.66328 z m 33.18867,-27.706832 -16.17266,37.926362 h -4.98574 l 5.15937,-11.55898 -11.03808,-26.367382 h 5.06015 l 8.50801,20.538281 8.58242,-20.538281 z"
       id="text1"
       style="font-size:50.8px;font-family:'HoloLens MDL2 Assets';-inkscape-font-specification:'HoloLens MDL2 Assets';direction:rtl;stroke-width:0.264583"
       aria-label="Daily" />
    <path
       style="fill:#f9d700;fill-opacity:1;stroke-width:0.264583"
       id="path7"
       d="m 63.272605,26.385956 c -0.02896,-1.627542 -0.03549,-3.255524 -0.04496,-4.883312 -0.0072,-2.230075 -0.0049,-4.460195 0.0011,-6.690275 0.0052,-1.57829 0.02619,-3.156596 0.02413,-4.734893 0.0024,-0.846519 7.94e-4,-0.431139 0.0047,-1.246143 0,0 -3.48833,-1.777394 -3.48833,-1.777394 v 0 c 0.004,0.818616 0.0024,0.401622 0.0048,1.250982 -0.0021,1.586492 0.01894,3.172989 0.02413,4.759473 0.0059,2.230416 0.0083,4.460875 0.0011,6.691289 -0.0094,1.612513 -0.01585,3.225231 -0.04496,4.837493 z" />
    <path
       style="fill:#f9d700;fill-opacity:1;stroke-width:0.264583"
       id="path7-7"
       d="m 38.626802,9.969554 c 0.757682,1.440712 1.495527,2.891902 2.235911,4.341597 1.009171,1.988683 2.009877,3.981677 3.00726,5.9763 0.705024,1.41208 1.395952,2.831273 2.107463,4.240094 0.378489,0.757196 0.19315,0.385453 0.556123,1.115178 0,0 3.914999,0.01908 3.914999,0.01908 v 0 c -0.371659,-0.7294 -0.182731,-0.357658 -0.566784,-1.115233 -0.711481,-1.418012 -1.443633,-2.825623 -2.161622,-4.240349 -1.008163,-1.989572 -2.01322,-3.980756 -3.009681,-5.976217 -0.71666,-1.444535 -1.436049,-2.887928 -2.134992,-4.341102 z" />
    <path
       style="fill:#f9d700;fill-opacity:1;stroke-width:0.264583"
       id="path7-1"
       d="m 24.388838,21.190551 c 1.206744,1.092471 2.428575,2.168338 3.648329,3.246295 1.674859,1.472451 3.356005,2.937779 5.039556,4.400295 1.192126,1.034347 2.394648,2.056811 3.582,3.096628 0.639142,0.555066 0.325238,0.283021 0.941635,0.816221 0,0 -0.956102,3.796505 -0.956102,3.796505 v 0 C 36.03034,36.004965 36.34335,36.280485 35.705227,35.719935 34.508965,34.67786 33.327923,33.618353 32.136463,32.570793 30.460486,31.099091 28.782175,29.63 27.097587,28.16817 25.876929,27.114477 24.658052,26.058425 23.424615,25.019742 Z" />
    <path
       style="fill:#f9d700;fill-opacity:1;stroke-width:0.270938"
       id="path7-1-7"
       d="m 35.751801,46.425651 c -1.663985,0.05829 -3.32773,0.09356 -4.99137,0.131841 -2.279007,0.04652 -4.557771,0.08329 -6.836381,0.116253 -1.612611,0.02235 -3.224747,0.02849 -4.837585,0.0583 -0.864937,0.01239 -0.440532,0.0067 -1.273219,0.01704 0,0 -1.923752,3.612757 -1.923752,3.612757 v 0 c 0.836621,-0.01847 0.410469,-0.0095 1.278456,-0.02688 1.621085,-0.02568 3.242886,-0.07512 4.864186,-0.108281 2.279324,-0.04519 4.558581,-0.08679 6.837492,-0.11853 1.647444,-0.01864 3.295194,-0.04031 4.941776,-0.03871 z" />
    <path
       style="fill:#f9d700;fill-opacity:1;stroke-width:0.264583"
       id="path7-1-6"
       d="m 36.74871,58.622699 c -1.292286,0.989808 -2.598247,1.961831 -3.902308,2.936107 -1.789992,1.330111 -3.585664,2.652609 -5.383502,3.972107 -1.27295,0.933078 -2.555286,1.85346 -3.823927,2.79239 -0.682517,0.50076 -0.347356,0.25538 -1.00541,0.73623 0,0 0.64148,3.86213 0.64148,3.86213 v 0 c 0.656267,-0.48935 0.321712,-0.24043 1.003664,-0.74675 1.277706,-0.94045 2.541671,-1.89951 3.815042,-2.84581 1.791045,-1.32927 3.5842,-2.655747 5.383015,-3.974479 1.302973,-0.950019 2.604365,-1.902537 3.918841,-2.836549 z" />
    <path
       style="fill:#f9d700;fill-opacity:1;stroke-width:0.264583"
       id="path7-1-6-3"
       d="m 45.84922,68.181743 c -0.890392,1.36269 -1.799588,2.71314 -2.706241,4.0651 -1.246898,1.84891 -2.50168,3.69254 -3.759498,5.53406 -0.89099,1.30275 -1.795042,2.59666 -2.680024,3.9035 -0.477561,0.69895 -0.24287,0.35623 -0.703972,1.02825 0,0 1.887269,3.43013 1.887269,3.43013 v 0 c 0.456589,-0.67946 0.223646,-0.3336 0.69883,-1.03759 0.893029,-1.31129 1.766912,-2.63558 2.653906,-3.95096 1.24817,-1.84846 2.499255,-3.69501 3.75825,-5.53613 0.913682,-1.32871 1.825047,-2.65924 2.754891,-3.97668 z" />
    <path
       style="fill:#f9d700;fill-opacity:1;stroke-width:0.264583"
       id="path7-74"
       d="m 61.707092,89.839403 c -0.02896,-1.62754 -0.03549,-3.25552 -0.04496,-4.88331 -0.0072,-2.23007 -0.0049,-4.46019 0.0011,-6.69027 0.0052,-1.57829 0.02619,-3.1566 0.02413,-4.7349 0.0024,-0.84652 7.94e-4,-0.43114 0.0047,-1.24614 0,0 -3.48833,-1.77739 -3.48833,-1.77739 v 0 c 0.004,0.81861 0.0024,0.40162 0.0048,1.25098 -0.0021,1.58649 0.01894,3.17299 0.02413,4.75947 0.0059,2.23042 0.0083,4.46088 0.0011,6.69129 -0.0094,1.61251 -0.01585,3.22523 -0.04496,4.83749 z" />
  </g>
</svg>
